<?xml version="1.0" encoding="UTF-8" standalone="no"?><!DOCTYPE svg PUBLIC "-//W3C//DTD SVG 1.1//EN" "http://www.w3.org/Graphics/SVG/1.1/DTD/svg11.dtd"><svg width="100%" height="100%" viewBox="0 0 15046 3691" version="1.1" xmlns="http://www.w3.org/2000/svg" xmlns:xlink="http://www.w3.org/1999/xlink" xml:space="preserve" xmlns:serif="http://www.serif.com/" style="fill-rule:evenodd;clip-rule:evenodd;stroke-linejoin:round;stroke-miterlimit:2;"><g><path d="M3659.14,842.237l0,2085.63l881.984,0c285.192,0 530.774,-215.755 530.774,-572.219c0,-259.531 -113.548,-469.033 -285.192,-537.824c121.471,-78.172 205.972,-247.024 205.972,-453.398c0,-356.465 -253.504,-522.189 -509.649,-522.189l-823.889,-0Zm377.616,825.497l0,-425.256l361.772,-0c118.83,-0 235.019,71.918 235.019,222.008c0,137.583 -102.986,200.121 -211.253,203.248l-385.538,-0Zm0,859.892l0,-509.682l385.538,0c161.081,0 287.833,71.919 287.833,259.532c-0,159.471 -110.908,250.15 -253.504,250.15l-419.867,0Z" style="fill:#33312e;fill-rule:nonzero;"/><rect x="5351.81" y="848.49" width="361.772" height="2079.38" style="fill:#33312e;fill-rule:nonzero;"/><path d="M6999.58,2927.87l361.772,0l-0,-1538.43l-361.772,0l-0,1019.36c-81.861,143.836 -192.769,215.755 -308.958,215.755c-184.847,-0 -279.911,-187.613 -279.911,-412.749l-0,-822.37l-361.772,0l-0,822.37c-0,415.876 237.66,744.198 641.683,744.198c105.626,0 221.816,-62.537 308.958,-162.598l-0,134.456Z" style="fill:#33312e;fill-rule:nonzero;"/><path d="M8990.65,2230.57c47.532,-428.383 -266.707,-869.274 -660.167,-869.274c-396.1,0 -697.137,337.703 -699.777,775.467c-0,469.032 324.802,812.99 749.95,812.99c219.175,-0 438.351,-84.426 536.056,-196.994l-0,-322.069c-161.081,128.202 -319.521,187.613 -514.931,187.613c-256.145,-0 -409.304,-178.232 -419.866,-387.733l1008.74,-0Zm-992.891,-278.293c10.562,-150.09 153.159,-256.404 332.724,-256.404c169.003,-0 311.599,109.44 319.521,256.404l-652.245,-0Z" style="fill:#33312e;fill-rule:nonzero;"/><path d="M9265.28,1389.44l-0,2120.03l359.131,-0c-0,-290.801 2.641,-403.368 2.641,-694.168c87.142,93.806 203.331,140.709 311.598,140.709c372.335,-3.127 705.059,-328.322 702.418,-797.355c2.641,-469.032 -330.083,-794.228 -702.418,-797.355c-102.986,0 -224.456,62.538 -311.598,165.725l-0,-137.583l-361.772,0Zm361.772,522.189c81.86,-143.836 203.331,-218.881 311.598,-215.754c182.207,-3.127 338.006,203.247 335.365,462.778c2.641,272.039 -153.158,462.779 -335.365,462.779c-110.908,-0 -229.738,-62.538 -311.598,-184.486l-0,-525.317Z" style="fill:#33312e;fill-rule:nonzero;"/><path d="M11274.8,1389.44l-361.772,0l0,1538.43l361.772,0l0,-1022.49c81.861,-134.456 198.05,-209.501 311.599,-209.501c50.173,-0 110.908,3.126 176.925,15.634l-0,-334.576c-66.017,-12.508 -124.112,-15.635 -174.284,-15.635c-105.627,0 -227.098,62.538 -314.24,162.598l0,-134.456Z" style="fill:#33312e;fill-rule:nonzero;"/><path d="M12006.3,945.424c0,118.821 73.939,206.374 174.285,206.374c102.986,-0 176.924,-87.553 176.924,-206.374c0,-118.822 -73.938,-206.375 -176.924,-206.375c-100.346,0 -174.285,87.553 -174.285,206.375Z" style="fill:#33312e;"/><rect x="12006.3" y="1389.44" width="361.772" height="1538.43" style="fill:#33312e;"/><path d="M13065.2,1389.44l-361.772,0l-0,1538.43l361.772,0l-0,-1019.36c84.501,-143.837 198.05,-212.628 314.239,-212.628c198.05,-0 308.959,203.247 308.959,462.778l-0,769.213l364.412,0l-0,-769.213c-0,-447.144 -256.145,-797.355 -673.371,-797.355c-108.267,0 -227.097,65.665 -314.239,165.725l-0,-137.583Z" style="fill:#33312e;fill-rule:nonzero;"/><path d="M14433.1,1389.44l-150.518,0l0,309.561l150.518,0l0,762.96c0,359.591 171.644,487.794 422.507,487.794c58.095,-0 108.268,-3.127 166.362,-9.381l0,-309.561c-44.891,9.38 -92.423,15.634 -124.111,15.634c-58.095,-0 -100.345,-50.03 -100.345,-184.486l-0,-762.96l248.222,0l0,-309.561l-248.222,0l-0,-540.951l-364.413,0l0,540.951Z" style="fill:#33312e;fill-rule:nonzero;"/></g><g><g><path d="M1938.79,74.001c312.96,360.752 601.237,550.567 155.186,818.534c450.904,-256.972 625.424,234.763 753.127,1061.16c-596.837,-261.898 -1137.3,141.864 -1647.34,904.676l-1002.14,-1902.83c377.702,-717.805 1533.71,-1133.56 1741.17,-881.55Z" style="fill:#235db1;"/><path d="M303.383,1423.58l911.566,1715.65c301.193,144.76 1148.89,-319.234 1223.6,-616.331c-28.174,42.555 -241.708,190.619 -471.854,313.048c-226.508,120.494 -469.608,215.696 -505.939,217.968c-44.721,2.797 -159.158,-0.413 -119.369,-0.31c-29.735,2.518 -48.332,-33.367 -64.245,-60.466c100.845,-256.654 287.081,-490.624 539.59,-706.989c422.859,-335.738 787.506,-462.165 1047.43,-212.053c323.59,611.842 -795.467,1252.58 -1846.57,1616.85l-1017.6,-1684.98l303.383,-582.39Z" style="fill:#235db1;"/></g></g></svg>