<?xml version="1.0" encoding="UTF-8" standalone="no"?><!DOCTYPE svg PUBLIC "-//W3C//DTD SVG 1.1//EN" "http://www.w3.org/Graphics/SVG/1.1/DTD/svg11.dtd"><svg width="100%" height="100%" viewBox="0 0 1024 1024" version="1.1" xmlns="http://www.w3.org/2000/svg" xmlns:xlink="http://www.w3.org/1999/xlink" xml:space="preserve" xmlns:serif="http://www.serif.com/" style="fill-rule:evenodd;clip-rule:evenodd;stroke-linejoin:round;stroke-miterlimit:2;"><rect id="Artboard1" x="0" y="0" width="1024" height="1024" style="fill:none;"/><g id="Artboard11" serif:id="Artboard1"><g><path d="M644.702,20.531c86.827,100.085 166.805,152.746 43.054,227.09c125.097,-71.293 173.516,65.132 208.945,294.405c-165.584,-72.66 -315.526,39.358 -457.032,250.99l-278.03,-527.912c104.788,-199.145 425.507,-314.491 483.063,-244.573Z" style="fill:#235db1;"/><path d="M190.982,394.951l252.901,475.984c83.561,40.161 318.743,-88.567 339.471,-170.993c-7.817,11.807 -67.059,52.885 -130.909,86.851c-62.842,33.429 -130.286,59.842 -140.366,60.472c-12.407,0.776 -44.156,-0.115 -33.117,-0.086c-8.25,0.699 -13.409,-9.257 -17.824,-16.775c27.978,-71.205 79.647,-136.117 149.702,-196.144c117.316,-93.146 218.482,-128.221 290.595,-58.831c89.775,169.747 -220.691,347.51 -512.304,448.571l-282.319,-467.474l84.17,-161.575Z" style="fill:#235db1;"/></g></g></svg>