<?xml version="1.0" encoding="UTF-8" standalone="no"?><!DOCTYPE svg PUBLIC "-//W3C//DTD SVG 1.1//EN" "http://www.w3.org/Graphics/SVG/1.1/DTD/svg11.dtd"><svg width="100%" height="100%" viewBox="0 0 2751 1697" version="1.1" xmlns="http://www.w3.org/2000/svg" xmlns:xlink="http://www.w3.org/1999/xlink" xml:space="preserve" xmlns:serif="http://www.serif.com/" style="fill-rule:evenodd;clip-rule:evenodd;stroke-linejoin:round;stroke-miterlimit:2;"><g><g><path d="M0,1152.8l0,425.385l213.011,0c68.878,0 128.19,-44.005 128.19,-116.71c-0,-52.933 -27.424,-95.663 -68.878,-109.694c29.337,-15.944 49.745,-50.383 49.745,-92.475c0,-72.704 -61.225,-106.506 -123.087,-106.506l-198.981,0Zm91.199,168.369l0,-86.736l87.373,0c28.7,0 56.761,14.669 56.761,45.281c-0,28.062 -24.873,40.817 -51.021,41.455l-93.113,-0Zm0,175.383l0,-103.954l93.113,-0c38.903,-0 69.516,14.668 69.516,52.934c-0,32.525 -26.786,51.02 -61.225,51.02l-101.404,0Z" style="fill:#33312e;fill-rule:nonzero;"/><rect x="408.803" y="1154.08" width="87.373" height="424.109" style="fill:#33312e;fill-rule:nonzero;"/><path d="M806.765,1578.19l87.372,0l0,-313.777l-87.372,0l-0,207.909c-19.771,29.337 -46.557,44.006 -74.618,44.006c-44.643,-0 -67.603,-38.266 -67.603,-84.184l0,-167.731l-87.373,0l0,167.731c0,84.821 57.399,151.786 154.976,151.786c25.51,0 53.572,-12.755 74.618,-33.163l-0,27.423Z" style="fill:#33312e;fill-rule:nonzero;"/><path d="M1287.63,1435.97c11.48,-87.373 -64.413,-177.297 -159.439,-177.297c-95.664,0 -168.368,68.878 -169.006,158.164c-0,95.664 78.444,165.818 181.123,165.818c52.934,-0 105.868,-17.22 129.465,-40.179l0,-65.689c-38.903,26.148 -77.169,38.265 -124.363,38.265c-61.862,0 -98.852,-36.352 -101.403,-79.082l243.623,0Zm-239.797,-56.76c2.551,-30.613 36.99,-52.297 80.358,-52.297c40.816,0 75.255,22.322 77.169,52.297l-157.527,-0Z" style="fill:#33312e;fill-rule:nonzero;"/><path d="M1353.96,1264.41l0,432.4l86.736,0c-0,-59.311 0.637,-82.27 0.637,-141.582c21.046,19.133 49.108,28.699 75.256,28.699c89.924,-0.638 170.281,-66.965 169.644,-162.628c0.637,-95.664 -79.72,-161.991 -169.644,-162.629c-24.873,0 -54.21,12.755 -75.256,33.801l0,-28.061l-87.373,0Zm87.373,106.506c19.771,-29.337 49.108,-44.643 75.256,-44.006c44.005,-0.637 81.633,41.455 80.995,94.389c0.638,55.485 -36.99,94.388 -80.995,94.388c-26.786,-0 -55.485,-12.755 -75.256,-37.628l0,-107.143Z" style="fill:#33312e;fill-rule:nonzero;"/><path d="M1839.3,1264.41l-87.373,0l-0,313.777l87.373,0l-0,-208.547c19.77,-27.423 47.831,-42.73 75.255,-42.73c12.118,0 26.786,0.638 42.73,3.189l-0,-68.24c-15.944,-2.551 -29.975,-3.189 -42.092,-3.189c-25.51,0 -54.847,12.755 -75.893,33.164l-0,-27.424Z" style="fill:#33312e;fill-rule:nonzero;"/><path d="M2015.96,1173.85c-0,24.235 17.857,42.092 42.092,42.092c24.872,0 42.73,-17.857 42.73,-42.092c-0,-24.234 -17.858,-42.092 -42.73,-42.092c-24.235,0 -42.092,17.858 -42.092,42.092Z" style="fill:#33312e;"/><rect x="2015.96" y="1264.41" width="87.373" height="313.777" style="fill:#33312e;"/><path d="M2271.7,1264.41l-87.373,0l-0,313.777l87.373,0l-0,-207.909c20.408,-29.337 47.832,-43.368 75.893,-43.368c47.832,0 74.618,41.455 74.618,94.389l-0,156.888l88.011,0l-0,-156.888c-0,-91.2 -61.863,-162.629 -162.629,-162.629c-26.148,0 -54.847,13.393 -75.893,33.801l-0,-28.061Z" style="fill:#33312e;fill-rule:nonzero;"/><path d="M2602.05,1264.41l-36.352,0l-0,63.138l36.352,0l-0,155.613c-0,73.342 41.454,99.491 102.041,99.491c14.031,-0 26.148,-0.638 40.179,-1.914l-0,-63.138c-10.842,1.914 -22.322,3.189 -29.975,3.189c-14.03,0 -24.235,-10.204 -24.235,-37.628l0,-155.613l59.95,0l-0,-63.138l-59.95,0l0,-110.332l-88.01,-0l-0,110.332Z" style="fill:#33312e;fill-rule:nonzero;"/></g><g><g><path d="M1525.12,19.67c98.215,95.89 188.684,146.344 48.702,217.571c141.505,-68.305 196.275,62.402 236.351,282.064c-187.303,-69.614 -356.913,37.708 -516.98,240.469l-314.499,-505.783c118.533,-190.797 481.321,-301.307 546.426,-234.321Z" style="fill:#235db1;"/><path d="M1011.88,378.395l286.074,456.031c94.523,38.478 360.553,-84.854 383.999,-163.824c-8.841,11.311 -75.854,50.667 -148.08,83.21c-71.084,32.028 -147.375,57.333 -158.777,57.937c-14.035,0.743 -49.948,-0.11 -37.461,-0.083c-9.332,0.67 -15.168,-8.869 -20.162,-16.072c31.648,-68.22 90.094,-130.411 169.338,-187.922c132.704,-89.241 247.14,-122.846 328.712,-56.365c101.551,162.632 -249.639,332.943 -579.503,429.768l-319.349,-447.877l95.209,-154.803Z" style="fill:#235db1;"/></g></g></g></svg>